<svg xmlns="http://www.w3.org/2000/svg" xmlns:xlink="http://www.w3.org/1999/xlink" width="500" zoomAndPan="magnify" viewBox="0 0 375 374.999991" height="500" preserveAspectRatio="xMidYMid meet" version="1.0"><defs><g/><clipPath id="48cb235fec"><path d="M 23.722656 0.691406 L 278.964844 0.691406 L 278.964844 368.878906 L 23.722656 368.878906 Z M 23.722656 0.691406 " clip-rule="nonzero"/></clipPath><clipPath id="40f8659fbd"><rect x="0" width="283" y="0" height="369"/></clipPath></defs><g transform="matrix(1, 0, 0, 1, 37, 6)"><g clip-path="url(#40f8659fbd)"><g clip-path="url(#48cb235fec)"><path fill="#dad7cd" d="M 140.839844 0.757812 C 140.816406 0.753906 140.789062 0.757812 140.761719 0.761719 C 140.617188 0.789062 140.523438 0.929688 140.554688 1.074219 C 140.910156 2.796875 141.347656 4.445312 141.875 6.019531 C 143.164062 9.917969 143.660156 13.890625 143.355469 17.9375 C 143.328125 18.308594 143.132812 19.644531 142.777344 21.949219 C 140.933594 33.851562 142.988281 45.839844 143.472656 57.757812 C 144.042969 71.746094 140.738281 85.457031 141.472656 99.496094 C 141.761719 104.953125 140.921875 110.0625 138.953125 114.824219 C 137.226562 118.996094 135.492188 123.160156 133.746094 127.324219 C 131.347656 133.03125 129.234375 138.84375 127.410156 144.75 C 127.40625 144.757812 126.847656 146.714844 125.734375 150.621094 C 124.648438 154.425781 123.363281 158.160156 121.875 161.828125 C 121.277344 163.292969 120.691406 164.757812 120.117188 166.230469 C 119.523438 167.746094 118.84375 169.167969 118.078125 170.503906 C 117.097656 172.203125 116.117188 173.902344 115.136719 175.59375 C 114.988281 175.851562 114.839844 175.851562 114.703125 175.585938 C 114.242188 174.710938 113.992188 173.78125 113.949219 172.796875 C 113.449219 161.230469 118.402344 150.285156 120.378906 139.0625 C 122.554688 126.71875 123.671875 114.183594 124.234375 101.667969 C 124.625 92.847656 121.171875 84.566406 118.179688 76.457031 C 115.101562 68.105469 114.082031 60.839844 113.160156 52.085938 C 113.117188 51.6875 113.019531 51.371094 112.867188 51.136719 C 112.484375 50.539062 112.085938 50.515625 111.675781 51.066406 C 111.503906 51.296875 111.355469 51.640625 111.222656 52.105469 C 110.535156 54.539062 109.917969 56.984375 109.371094 59.445312 C 107.019531 69.203125 103.257812 78.496094 99.050781 87.585938 C 96.023438 94.128906 95.117188 97.738281 95.109375 105 C 95.097656 113.265625 93.96875 121.574219 93.96875 129.757812 C 93.96875 143.910156 101.824219 153.175781 107.183594 165.421875 C 108.613281 168.683594 109.777344 172.039062 110.683594 175.492188 C 111.023438 176.792969 111.234375 178.03125 111.308594 179.203125 C 111.398438 180.613281 111.386719 181.871094 111.277344 182.976562 C 109.964844 196.101562 108.835938 209.648438 109.285156 222.847656 C 109.367188 225.335938 109.433594 227.824219 109.480469 230.316406 C 109.480469 230.347656 109.507812 230.832031 109.566406 231.777344 C 109.609375 232.472656 109.570312 233.171875 109.445312 233.867188 C 108.722656 237.992188 107.699219 242.042969 106.367188 246.019531 C 106.21875 246.472656 106.082031 246.46875 105.957031 246.007812 C 105.558594 244.558594 105.191406 243.105469 104.851562 241.636719 C 104.675781 240.867188 104.40625 239.390625 104.039062 237.210938 C 101.84375 224.136719 94.449219 212.585938 91.019531 199.855469 C 87.695312 187.503906 85.582031 174.871094 83.582031 162.253906 C 82.582031 155.9375 81.507812 149.625 80.566406 143.300781 C 79.761719 137.863281 81.191406 133.871094 82.320312 128.484375 C 82.507812 127.578125 82.417969 126.703125 82.046875 125.859375 C 82.023438 125.804688 81.992188 125.75 81.953125 125.703125 C 81.703125 125.378906 81.238281 125.320312 80.917969 125.570312 C 80.0625 126.234375 79.324219 127.117188 78.699219 128.230469 C 72.039062 140.109375 70.925781 153.921875 65.589844 166.191406 C 57.097656 185.664062 75.78125 200.460938 88.292969 212.34375 C 90.777344 214.707031 93.21875 217.117188 95.617188 219.566406 C 99.152344 223.1875 100.242188 233.613281 101.292969 238.363281 C 103.472656 248.21875 104.425781 258.222656 104.316406 268.304688 C 104.3125 268.933594 104.160156 268.96875 103.863281 268.417969 C 103.199219 267.179688 102.445312 266.011719 101.601562 264.914062 C 101.101562 264.265625 100.160156 263.25 98.777344 261.867188 C 96.144531 259.234375 93.683594 256.441406 91.402344 253.488281 C 87.964844 249.042969 87.71875 244.105469 86.546875 238.871094 C 83.820312 226.703125 77.328125 213.234375 64.292969 209.777344 C 60.078125 208.660156 55.710938 208.183594 51.484375 207.117188 C 43.769531 205.175781 36.566406 201.242188 30.761719 195.800781 C 29.664062 194.773438 28.53125 193.648438 27.0625 193.339844 C 25.59375 193.03125 23.753906 194.019531 23.828125 195.519531 C 23.941406 197.773438 29.621094 199.023438 31.195312 200.488281 C 34.273438 203.351562 35.980469 208.015625 37.398438 211.851562 C 40.359375 219.882812 41.964844 230.015625 50.179688 234.546875 C 56.789062 238.195312 63.347656 238.757812 69.375 243.632812 C 75.765625 248.800781 83.804688 251.078125 90.117188 256.472656 C 99.8125 264.761719 105.796875 276.265625 106.597656 289.007812 C 106.746094 291.304688 107.160156 293.742188 107.839844 296.324219 C 108.578125 299.101562 108.949219 300.503906 108.953125 300.527344 C 112.074219 321.855469 116.132812 342.496094 112.988281 364.082031 C 112.675781 365.5625 112.546875 366.585938 112.597656 367.148438 C 112.703125 368.417969 113.394531 368.878906 114.671875 368.527344 C 115.800781 368.21875 116.617188 367.601562 117.121094 366.679688 C 117.664062 365.6875 118.078125 364.644531 118.367188 363.546875 C 119.613281 358.734375 120.6875 353.882812 121.589844 348.992188 C 122.503906 346.035156 123.097656 343.960938 123.371094 342.777344 C 124.394531 338.351562 125.878906 334.085938 127.820312 329.976562 C 134.367188 316.121094 144.523438 302.554688 155.839844 291.925781 C 161.703125 286.417969 168.144531 281.53125 175.089844 277.460938 C 182.640625 273.035156 190.382812 273.152344 198.304688 269.628906 C 199.148438 269.253906 199.132812 268.914062 198.261719 268.613281 C 195.691406 267.726562 193.054688 267.117188 190.359375 266.785156 C 181.1875 265.660156 171.980469 265.265625 162.742188 265.605469 C 152.777344 265.878906 141.355469 271.453125 133.484375 277.367188 C 124.511719 284.113281 120.15625 293.648438 121.726562 304.804688 C 121.90625 306.070312 122.394531 308.304688 123.199219 311.511719 C 124.496094 316.683594 124.847656 321.875 124.261719 327.082031 C 124.023438 329.21875 123.339844 332.082031 122.21875 335.675781 C 121.316406 338.566406 120.429688 341.46875 119.566406 344.378906 C 119.535156 344.476562 119.472656 344.550781 119.410156 344.558594 C 119.339844 344.574219 119.304688 344.515625 119.300781 344.382812 C 119.105469 324.152344 110.632812 302.007812 115.695312 282.066406 C 119.546875 266.945312 134.25 252.003906 149.910156 249.5625 C 158.589844 248.207031 165.449219 253.058594 174.035156 252.195312 C 187.527344 250.839844 200.742188 239.414062 212.097656 232.625 C 218.855469 228.582031 225.855469 225.023438 233.101562 221.941406 C 235.007812 221.132812 237 220.746094 239.066406 220.78125 C 241.140625 221.199219 242.738281 221.390625 243.859375 221.359375 C 244.914062 221.328125 245.285156 220.839844 244.960938 219.894531 C 244.910156 219.742188 244.800781 219.609375 244.65625 219.515625 C 243.265625 218.632812 241.757812 218.023438 240.140625 217.679688 C 233.074219 215.949219 225.902344 214.96875 218.628906 214.738281 C 205.6875 214.324219 192.375 214.996094 180.066406 219.34375 C 166.34375 224.191406 158.476562 233.558594 148.347656 243.253906 C 143.710938 247.695312 137.851562 250.699219 132.585938 254.339844 C 127.195312 258.066406 122.675781 262.894531 118.726562 268.171875 C 116.667969 270.921875 115.089844 273.742188 113.992188 276.628906 C 112.785156 279.789062 111.921875 283.058594 111.402344 286.429688 C 111.386719 286.546875 111.347656 286.628906 111.289062 286.683594 C 111.164062 286.796875 111.0625 286.703125 110.996094 286.394531 C 110.347656 283.425781 109.824219 280.433594 109.433594 277.425781 C 109.261719 276.101562 109.023438 274.816406 108.71875 273.582031 C 108.246094 271.664062 107.980469 270.386719 107.921875 269.753906 C 107.488281 265.085938 107.320312 260.414062 107.410156 255.742188 C 107.460938 253.015625 107.773438 250.460938 108.347656 248.070312 C 109.105469 244.921875 110.070312 241.835938 111.242188 238.804688 C 111.542969 238.019531 111.921875 236.484375 112.371094 234.195312 C 114.023438 225.792969 118.148438 218.503906 125.917969 214.339844 C 133.515625 210.269531 141.175781 211.296875 149.246094 212.804688 C 158.445312 214.523438 167.761719 215.09375 176.972656 213.097656 C 188.144531 210.675781 198.269531 206.421875 208.570312 201.613281 C 218 197.207031 228.425781 194.308594 238.234375 190.609375 C 244.148438 188.386719 249.886719 185.789062 255.453125 182.816406 C 260.492188 180.128906 263.0625 178.753906 263.167969 178.699219 C 268.304688 176 273.34375 173.125 278.28125 170.066406 C 278.792969 169.75 278.777344 169.460938 278.234375 169.203125 C 277.816406 169.007812 277.332031 168.933594 276.78125 168.988281 C 270.21875 169.660156 263.683594 170.523438 257.171875 171.578125 C 242.652344 173.933594 228.019531 175.914062 213.792969 179.746094 C 202.007812 182.917969 191.109375 188.351562 179.78125 192.753906 C 165.308594 198.378906 149.710938 200.074219 135.316406 205.390625 C 132.605469 206.390625 130.207031 207.703125 128.125 209.328125 C 126.59375 210.519531 125.457031 211.28125 124.714844 211.613281 L 122.417969 212.359375 C 121.882812 212.53125 121.78125 212.390625 122.113281 211.929688 C 123.535156 209.953125 124.875 208.003906 126.144531 206.082031 C 127.378906 204.210938 128.667969 202.664062 130.015625 201.4375 C 137.433594 194.691406 145.65625 188.394531 155.378906 185.453125 C 166.042969 182.222656 177.449219 182.375 188.09375 178.796875 C 199.542969 174.949219 206.277344 166.050781 216.574219 160.539062 C 222.605469 157.3125 229.457031 155.644531 237.136719 155.527344 C 237.179688 155.527344 237.648438 155.550781 238.539062 155.605469 C 239.289062 155.652344 240.027344 155.542969 240.75 155.277344 C 241.765625 154.175781 241.957031 153.007812 241.328125 151.765625 C 241.253906 151.625 241.128906 151.507812 240.972656 151.4375 C 236.875 149.617188 232.585938 148.621094 228.105469 148.453125 C 216.871094 148.027344 201.425781 145.242188 190.984375 150 C 183.5625 153.382812 178.9375 160.371094 172.921875 165.558594 C 165.964844 171.550781 158.457031 177.175781 150.980469 182.507812 C 147.203125 184.386719 143.730469 186.714844 140.566406 189.496094 C 140.5625 189.5 140.027344 190.015625 138.960938 191.042969 C 137.695312 192.265625 136.257812 193.257812 134.648438 194.011719 C 133.140625 194.722656 132.652344 194.394531 133.1875 193.03125 C 133.84375 191.351562 134.625 189.738281 135.527344 188.1875 C 136.128906 187.148438 137.160156 185.6875 138.617188 183.808594 C 154.929688 162.792969 167.054688 138.597656 192.613281 126.886719 L 200.40625 123.21875 L 214.117188 116.726562 C 214.679688 116.457031 215.003906 116.019531 215.082031 115.410156 C 215.148438 114.902344 214.910156 114.585938 214.359375 114.464844 C 214.089844 114.410156 213.742188 114.433594 213.308594 114.539062 C 205.320312 116.441406 198.28125 119.515625 189.90625 118.765625 C 181.398438 118.003906 173.703125 117.800781 165.375 120.273438 C 141.371094 127.402344 135.523438 150.277344 132.703125 172.375 C 132.269531 175.777344 131.992188 180.859375 131.867188 187.625 C 131.65625 199.34375 120.035156 209.285156 114.996094 219.210938 C 114.261719 220.652344 113.460938 222.011719 112.589844 223.28125 C 112.402344 223.558594 112.238281 223.542969 112.101562 223.238281 C 111.636719 222.210938 111.425781 221.199219 111.460938 220.210938 C 111.542969 218.140625 111.730469 216.078125 112.03125 214.03125 C 112.453125 211.164062 112.703125 209.113281 112.78125 207.886719 C 113.105469 202.925781 113.285156 197.957031 113.324219 192.984375 C 113.355469 188.300781 114.582031 183.484375 116.992188 178.535156 C 121.777344 168.714844 125.59375 158.464844 129.050781 148.113281 C 132.21875 138.632812 133.984375 127.496094 140.488281 119.605469 C 141.269531 118.65625 142.035156 117.976562 142.785156 117.566406 C 144.558594 116.597656 146.335938 115.632812 148.113281 114.667969 C 149.925781 113.6875 151.589844 112.5 153.105469 111.105469 C 172.699219 93.0625 169.773438 52.613281 156.976562 31.390625 C 155.210938 28.464844 153.945312 25.101562 153.175781 21.304688 C 152.105469 16.0625 149.679688 11.347656 145.902344 7.167969 C 144.578125 5.707031 143.535156 4.066406 142.769531 2.246094 C 142.394531 1.351562 141.753906 0.855469 140.839844 0.757812 Z M 37.863281 205.035156 C 37.855469 205.015625 37.851562 205 37.84375 204.984375 C 37.851562 205.003906 37.859375 205.019531 37.867188 205.039062 C 37.867188 205.039062 37.863281 205.035156 37.863281 205.035156 Z M 119.828125 348.257812 C 119.832031 348.242188 119.835938 348.226562 119.839844 348.210938 C 119.839844 348.199219 119.847656 348.191406 119.851562 348.179688 C 119.84375 348.207031 119.832031 348.230469 119.828125 348.257812 Z M 195.691406 225.289062 C 195.691406 225.292969 195.691406 225.292969 195.691406 225.296875 C 195.683594 225.324219 195.660156 225.34375 195.648438 225.367188 C 195.660156 225.339844 195.683594 225.320312 195.691406 225.289062 Z M 227.035156 153.050781 C 227.035156 153.054688 227.035156 153.058594 227.035156 153.058594 C 227.035156 153.058594 227.035156 153.054688 227.035156 153.050781 Z M 227.035156 153.050781 " fill-opacity="1" fill-rule="nonzero"/></g><g fill="#1d1d1d" fill-opacity="1"><g transform="translate(103.473907, 237.471695)"><g><path d="M -1.515625 0 L -1.515625 -1.15625 C -0.265625 -1.570312 0.945312 -2.382812 2.125 -3.59375 C 3.3125 -4.8125 4.585938 -7.109375 5.953125 -10.484375 L 23.4375 -53.8125 C 23.96875 -55.226562 23.910156 -56.617188 23.265625 -57.984375 L 22.46875 -59.84375 L 29.125 -62.875 L 50.96875 -10.390625 C 52.332031 -7.078125 53.5625 -4.8125 54.65625 -3.59375 C 55.75 -2.382812 56.769531 -1.570312 57.71875 -1.15625 L 57.71875 0 L 43.953125 0 L 43.953125 -1.15625 C 45.316406 -1.570312 45.878906 -2.382812 45.640625 -3.59375 C 45.398438 -4.8125 44.570312 -7.078125 43.15625 -10.390625 L 37.734375 -23.4375 L 12.703125 -23.4375 L 7.453125 -10.484375 C 5.203125 -4.859375 5.5625 -1.75 8.53125 -1.15625 L 8.53125 0 Z M 13.234375 -24.78125 L 37.203125 -24.78125 L 25.046875 -53.984375 Z M 13.234375 -24.78125 "/></g></g></g><g fill="#1d1d1d" fill-opacity="1"><g transform="translate(158.604036, 237.471695)"><g><path d="M 6.296875 -51.6875 C 4.992188 -55.050781 3.796875 -57.335938 2.703125 -58.546875 C 1.609375 -59.765625 0.585938 -60.582031 -0.359375 -61 L -0.359375 -62.15625 L 13.5 -62.15625 L 13.5 -61 C 12.195312 -60.582031 11.648438 -59.765625 11.859375 -58.546875 C 12.066406 -57.335938 12.820312 -55.050781 14.125 -51.6875 L 31.25 -7.71875 L 48.125 -51.59375 C 49.25 -54.550781 49.722656 -56.785156 49.546875 -58.296875 C 49.367188 -59.804688 48.507812 -60.707031 46.96875 -61 L 46.96875 -62.15625 L 56.921875 -62.15625 L 56.921875 -61 C 55.734375 -60.582031 54.5625 -59.765625 53.40625 -58.546875 C 52.257812 -57.335938 51.03125 -55.050781 49.71875 -51.6875 L 29.5625 0.4375 L 27.078125 0.4375 Z M 6.296875 -51.6875 "/></g></g></g><g fill="#1d1d1d" fill-opacity="1"><g transform="translate(213.290281, 237.471695)"><g><path d="M 4.53125 0 L 4.53125 -1.15625 C 5.894531 -1.570312 6.828125 -2.457031 7.328125 -3.8125 C 7.828125 -5.175781 8.078125 -7.664062 8.078125 -11.28125 L 8.078125 -50.875 C 8.078125 -54.550781 7.828125 -57.050781 7.328125 -58.375 C 6.828125 -59.707031 5.894531 -60.582031 4.53125 -61 L 4.53125 -62.15625 L 45.8125 -62.15625 L 46.796875 -50.609375 L 45.8125 -50.34375 C 44.28125 -54.25 42.132812 -56.972656 39.375 -58.515625 C 36.625 -60.054688 32.972656 -60.828125 28.421875 -60.828125 L 15.359375 -60.828125 L 15.359375 -33.921875 L 26.734375 -33.921875 C 30.109375 -33.921875 32.726562 -34.140625 34.59375 -34.578125 C 36.457031 -35.023438 37.816406 -35.707031 38.671875 -36.625 C 39.523438 -37.539062 40.128906 -38.648438 40.484375 -39.953125 L 41.5625 -39.953125 L 41.5625 -26.546875 L 40.484375 -26.546875 C 40.128906 -27.910156 39.523438 -29.035156 38.671875 -29.921875 C 37.816406 -30.804688 36.457031 -31.472656 34.59375 -31.921875 C 32.726562 -32.367188 30.109375 -32.59375 26.734375 -32.59375 L 15.359375 -32.59375 L 15.359375 -5.328125 C 15.359375 -2.660156 16.691406 -1.328125 19.359375 -1.328125 L 30.90625 -1.328125 C 35.164062 -1.328125 38.6875 -2.066406 41.46875 -3.546875 C 44.25 -5.023438 46.441406 -7.835938 48.046875 -11.984375 L 49.015625 -11.8125 L 48.3125 0 Z M 4.53125 0 "/></g></g></g><g fill="#1d1d1d" fill-opacity="1"><g transform="translate(263.803993, 237.471695)"><g><path d="M 2.65625 -44.21875 C 4.96875 -45.40625 6.671875 -47.003906 7.765625 -49.015625 C 8.859375 -51.023438 9.46875 -53.15625 9.59375 -55.40625 C 9.238281 -55.289062 8.894531 -55.1875 8.5625 -55.09375 C 8.238281 -55.007812 7.867188 -54.96875 7.453125 -54.96875 C 6.273438 -54.96875 5.253906 -55.394531 4.390625 -56.25 C 3.535156 -57.113281 3.109375 -58.132812 3.109375 -59.3125 C 3.109375 -60.789062 3.550781 -62.003906 4.4375 -62.953125 C 5.320312 -63.898438 6.476562 -64.375 7.90625 -64.375 C 9.625 -64.375 11 -63.78125 12.03125 -62.59375 C 13.0625 -61.414062 13.550781 -59.734375 13.5 -57.546875 C 13.5 -55.410156 12.992188 -53.378906 11.984375 -51.453125 C 10.984375 -49.535156 9.679688 -47.878906 8.078125 -46.484375 C 6.484375 -45.085938 4.796875 -44.066406 3.015625 -43.421875 Z M 2.65625 -44.21875 "/></g></g></g><g fill="#1d1d1d" fill-opacity="1"><g transform="translate(19.108657, 251.733831)"><g><path d="M -2.09375 26.609375 C -6.082031 26.609375 -9.671875 25.257812 -12.859375 22.5625 C -16.046875 19.875 -17.640625 15.191406 -17.640625 8.515625 C -17.640625 3.929688 -16.566406 -1 -14.421875 -6.28125 C -12.285156 -11.5625 -9.144531 -16.789062 -5 -21.96875 C -0.863281 -27.15625 4.113281 -32.039062 9.9375 -36.625 C 15.769531 -41.207031 22.375 -45.046875 29.75 -48.140625 L 30.640625 -46.5 C 24.367188 -43.800781 18.835938 -40.304688 14.046875 -36.015625 C 9.265625 -31.734375 5.226562 -27.148438 1.9375 -22.265625 C -1.34375 -17.390625 -3.804688 -12.609375 -5.453125 -7.921875 C -7.097656 -3.234375 -7.921875 0.898438 -7.921875 4.484375 C -7.921875 16.546875 -3.632812 22.578125 4.9375 22.578125 C 8.914062 22.578125 12.800781 21.40625 16.59375 19.0625 C 20.382812 16.71875 24 13.578125 27.4375 9.640625 C 30.875 5.703125 34.160156 1.296875 37.296875 -3.578125 C 40.441406 -8.460938 43.410156 -13.445312 46.203125 -18.53125 C 50.785156 -26.507812 55.242188 -34.984375 59.578125 -43.953125 C 63.910156 -52.921875 68.242188 -61.863281 72.578125 -70.78125 C 76.910156 -79.707031 81.269531 -88.007812 85.65625 -95.6875 C 87.65625 -99.164062 89.828125 -102.023438 92.171875 -104.265625 C 94.515625 -106.515625 97.28125 -108.6875 100.46875 -110.78125 L 103.453125 -112.71875 L 54.71875 -112.28125 C 51.125 -112.28125 48.179688 -111.851562 45.890625 -111 C 43.597656 -110.15625 41.578125 -109.007812 39.828125 -107.5625 C 38.085938 -106.113281 36.175781 -104.394531 34.09375 -102.40625 L 32.890625 -103.453125 C 34.984375 -105.742188 37.148438 -108.109375 39.390625 -110.546875 C 41.628906 -112.992188 44 -115.210938 46.5 -117.203125 C 48.488281 -118.796875 51.273438 -119.59375 54.859375 -119.59375 L 110.1875 -119.453125 C 110.976562 -119.453125 111.472656 -119.351562 111.671875 -119.15625 C 111.867188 -118.957031 111.96875 -118.707031 111.96875 -118.40625 C 111.96875 -118.007812 111.367188 -117.210938 110.171875 -116.015625 C 108.984375 -114.816406 107.941406 -113.921875 107.046875 -113.328125 C 104.648438 -111.722656 102.753906 -109.847656 101.359375 -107.703125 C 99.960938 -105.566406 98.414062 -103.054688 96.71875 -100.171875 C 92.332031 -92.691406 87.972656 -84.488281 83.640625 -75.5625 C 79.304688 -66.644531 74.972656 -57.703125 70.640625 -48.734375 C 66.304688 -39.765625 61.945312 -31.441406 57.5625 -23.765625 C 53.769531 -17.390625 49.628906 -11.210938 45.140625 -5.234375 C 40.660156 0.742188 35.90625 6.125 30.875 10.90625 C 25.84375 15.695312 20.5625 19.507812 15.03125 22.34375 C 9.5 25.1875 3.789062 26.609375 -2.09375 26.609375 Z M -2.09375 26.609375 "/></g></g></g><g fill="#000000" fill-opacity="1"><g transform="translate(23.085886, 295.031655)"><g><path d="M 12.671875 -12.390625 L 12.671875 0 L 10.375 0 L 10.375 -5.3125 L 3.96875 -5.3125 L 3.96875 0 L 1.671875 0 L 1.671875 -12.390625 L 3.96875 -12.390625 L 3.96875 -7.28125 L 10.375 -7.28125 L 10.375 -12.390625 Z M 12.671875 -12.390625 "/></g></g></g><g fill="#000000" fill-opacity="1"><g transform="translate(40.224155, 295.031655)"><g><path d="M 9.703125 -2.875 L 3.5 -2.875 L 2.28125 0 L -0.09375 0 L 5.484375 -12.390625 L 7.75 -12.390625 L 13.34375 0 L 10.9375 0 Z M 8.9375 -4.671875 L 6.609375 -10.09375 L 4.28125 -4.671875 Z M 8.9375 -4.671875 "/></g></g></g><g fill="#000000" fill-opacity="1"><g transform="translate(56.282443, 295.031655)"><g><path d="M 12.671875 -12.390625 L 12.671875 0 L 10.78125 0 L 3.953125 -8.390625 L 3.953125 0 L 1.671875 0 L 1.671875 -12.390625 L 3.5625 -12.390625 L 10.390625 -4 L 10.390625 -12.390625 Z M 12.671875 -12.390625 "/></g></g></g><g fill="#000000" fill-opacity="1"><g transform="translate(73.420712, 295.031655)"><g><path d="M 1.671875 -12.390625 L 7.078125 -12.390625 C 8.398438 -12.390625 9.570312 -12.132812 10.59375 -11.625 C 11.625 -11.113281 12.421875 -10.382812 12.984375 -9.4375 C 13.554688 -8.5 13.84375 -7.421875 13.84375 -6.203125 C 13.84375 -4.972656 13.554688 -3.890625 12.984375 -2.953125 C 12.421875 -2.015625 11.625 -1.285156 10.59375 -0.765625 C 9.570312 -0.253906 8.398438 0 7.078125 0 L 1.671875 0 Z M 6.96875 -1.953125 C 7.882812 -1.953125 8.6875 -2.125 9.375 -2.46875 C 10.0625 -2.8125 10.59375 -3.304688 10.96875 -3.953125 C 11.34375 -4.597656 11.53125 -5.347656 11.53125 -6.203125 C 11.53125 -7.046875 11.34375 -7.789062 10.96875 -8.4375 C 10.59375 -9.082031 10.0625 -9.578125 9.375 -9.921875 C 8.6875 -10.265625 7.882812 -10.4375 6.96875 -10.4375 L 3.96875 -10.4375 L 3.96875 -1.953125 Z M 6.96875 -1.953125 "/></g></g></g><g fill="#000000" fill-opacity="1"><g transform="translate(90.842258, 295.031655)"><g/></g></g><g fill="#000000" fill-opacity="1"><g transform="translate(98.526147, 295.031655)"><g><path d="M 13.046875 0 L 13.03125 -8.21875 L 8.953125 -1.421875 L 7.9375 -1.421875 L 3.859375 -8.109375 L 3.859375 0 L 1.671875 0 L 1.671875 -12.390625 L 3.5625 -12.390625 L 8.484375 -4.171875 L 13.3125 -12.390625 L 15.203125 -12.390625 L 15.21875 0 Z M 13.046875 0 "/></g></g></g><g fill="#000000" fill-opacity="1"><g transform="translate(118.231633, 295.031655)"><g><path d="M 9.703125 -2.875 L 3.5 -2.875 L 2.28125 0 L -0.09375 0 L 5.484375 -12.390625 L 7.75 -12.390625 L 13.34375 0 L 10.9375 0 Z M 8.9375 -4.671875 L 6.609375 -10.09375 L 4.28125 -4.671875 Z M 8.9375 -4.671875 "/></g></g></g><g fill="#000000" fill-opacity="1"><g transform="translate(134.289921, 295.031655)"><g><path d="M 1.671875 -12.390625 L 7.078125 -12.390625 C 8.398438 -12.390625 9.570312 -12.132812 10.59375 -11.625 C 11.625 -11.113281 12.421875 -10.382812 12.984375 -9.4375 C 13.554688 -8.5 13.84375 -7.421875 13.84375 -6.203125 C 13.84375 -4.972656 13.554688 -3.890625 12.984375 -2.953125 C 12.421875 -2.015625 11.625 -1.285156 10.59375 -0.765625 C 9.570312 -0.253906 8.398438 0 7.078125 0 L 1.671875 0 Z M 6.96875 -1.953125 C 7.882812 -1.953125 8.6875 -2.125 9.375 -2.46875 C 10.0625 -2.8125 10.59375 -3.304688 10.96875 -3.953125 C 11.34375 -4.597656 11.53125 -5.347656 11.53125 -6.203125 C 11.53125 -7.046875 11.34375 -7.789062 10.96875 -8.4375 C 10.59375 -9.082031 10.0625 -9.578125 9.375 -9.921875 C 8.6875 -10.265625 7.882812 -10.4375 6.96875 -10.4375 L 3.96875 -10.4375 L 3.96875 -1.953125 Z M 6.96875 -1.953125 "/></g></g></g><g fill="#000000" fill-opacity="1"><g transform="translate(151.711468, 295.031655)"><g><path d="M 10.953125 -1.921875 L 10.953125 0 L 1.671875 0 L 1.671875 -12.390625 L 10.703125 -12.390625 L 10.703125 -10.46875 L 3.96875 -10.46875 L 3.96875 -7.234375 L 9.953125 -7.234375 L 9.953125 -5.34375 L 3.96875 -5.34375 L 3.96875 -1.921875 Z M 10.953125 -1.921875 "/></g></g></g><g fill="#000000" fill-opacity="1"><g transform="translate(166.371062, 295.031655)"><g/></g></g><g fill="#000000" fill-opacity="1"><g transform="translate(174.054951, 295.031655)"><g><path d="M 3.59375 0.171875 C 2.800781 0.171875 2.070312 0.015625 1.40625 -0.296875 C 0.738281 -0.609375 0.191406 -1.046875 -0.234375 -1.609375 L 1.078125 -3.1875 C 1.765625 -2.238281 2.585938 -1.765625 3.546875 -1.765625 C 4.828125 -1.765625 5.46875 -2.523438 5.46875 -4.046875 L 5.46875 -10.46875 L 1.0625 -10.46875 L 1.0625 -12.390625 L 7.765625 -12.390625 L 7.765625 -4.171875 C 7.765625 -2.722656 7.410156 -1.632812 6.703125 -0.90625 C 5.992188 -0.1875 4.957031 0.171875 3.59375 0.171875 Z M 3.59375 0.171875 "/></g></g></g><g fill="#000000" fill-opacity="1"><g transform="translate(186.182763, 295.031655)"><g><path d="M 10.953125 -1.921875 L 10.953125 0 L 1.671875 0 L 1.671875 -12.390625 L 10.703125 -12.390625 L 10.703125 -10.46875 L 3.96875 -10.46875 L 3.96875 -7.234375 L 9.953125 -7.234375 L 9.953125 -5.34375 L 3.96875 -5.34375 L 3.96875 -1.921875 Z M 10.953125 -1.921875 "/></g></g></g><g fill="#000000" fill-opacity="1"><g transform="translate(200.842358, 295.031655)"><g><path d="M 19.78125 -12.390625 L 15.671875 0 L 13.21875 0 L 10.15625 -9.171875 L 7.046875 0 L 4.578125 0 L 0.484375 -12.390625 L 2.875 -12.390625 L 5.953125 -2.96875 L 9.15625 -12.390625 L 11.28125 -12.390625 L 14.40625 -2.921875 L 17.578125 -12.390625 Z M 19.78125 -12.390625 "/></g></g></g><g fill="#000000" fill-opacity="1"><g transform="translate(223.894069, 295.031655)"><g><path d="M 10.953125 -1.921875 L 10.953125 0 L 1.671875 0 L 1.671875 -12.390625 L 10.703125 -12.390625 L 10.703125 -10.46875 L 3.96875 -10.46875 L 3.96875 -7.234375 L 9.953125 -7.234375 L 9.953125 -5.34375 L 3.96875 -5.34375 L 3.96875 -1.921875 Z M 10.953125 -1.921875 "/></g></g></g><g fill="#000000" fill-opacity="1"><g transform="translate(238.553663, 295.031655)"><g><path d="M 1.671875 -12.390625 L 3.96875 -12.390625 L 3.96875 -1.953125 L 10.4375 -1.953125 L 10.4375 0 L 1.671875 0 Z M 1.671875 -12.390625 "/></g></g></g><g fill="#000000" fill-opacity="1"><g transform="translate(251.956214, 295.031655)"><g><path d="M 9.765625 0 L 7.234375 -3.625 C 7.128906 -3.613281 6.972656 -3.609375 6.765625 -3.609375 L 3.96875 -3.609375 L 3.96875 0 L 1.671875 0 L 1.671875 -12.390625 L 6.765625 -12.390625 C 7.835938 -12.390625 8.769531 -12.210938 9.5625 -11.859375 C 10.363281 -11.503906 10.972656 -10.992188 11.390625 -10.328125 C 11.816406 -9.671875 12.03125 -8.890625 12.03125 -7.984375 C 12.03125 -7.046875 11.800781 -6.238281 11.34375 -5.5625 C 10.894531 -4.894531 10.25 -4.398438 9.40625 -4.078125 L 12.25 0 Z M 9.71875 -7.984375 C 9.71875 -8.773438 9.457031 -9.378906 8.9375 -9.796875 C 8.414062 -10.222656 7.65625 -10.4375 6.65625 -10.4375 L 3.96875 -10.4375 L 3.96875 -5.5 L 6.65625 -5.5 C 7.65625 -5.5 8.414062 -5.710938 8.9375 -6.140625 C 9.457031 -6.578125 9.71875 -7.191406 9.71875 -7.984375 Z M 9.71875 -7.984375 "/></g></g></g><g fill="#000000" fill-opacity="1"><g transform="translate(267.695812, 295.031655)"><g><path d="M 7.015625 -4.375 L 7.015625 0 L 4.703125 0 L 4.703125 -4.34375 L -0.15625 -12.390625 L 2.296875 -12.390625 L 5.9375 -6.359375 L 9.59375 -12.390625 L 11.859375 -12.390625 Z M 7.015625 -4.375 "/></g></g></g></g></g></svg>