<svg xmlns="http://www.w3.org/2000/svg" xmlns:xlink="http://www.w3.org/1999/xlink" width="500" zoomAndPan="magnify" viewBox="0 0 375 374.999991" height="500" preserveAspectRatio="xMidYMid meet" version="1.0"><defs><g/><clipPath id="a8a1656f4b"><path d="M 28.480469 227.933594 L 35.859375 227.933594 L 35.859375 239 L 28.480469 239 Z M 28.480469 227.933594 " clip-rule="nonzero"/></clipPath><clipPath id="59fdab5449"><path d="M 25.40625 223.164062 L 35.730469 223.253906 L 35.589844 239.480469 L 25.261719 239.390625 Z M 25.40625 223.164062 " clip-rule="nonzero"/></clipPath><clipPath id="4b23c46062"><rect x="0" width="283" y="0" height="239"/></clipPath></defs><g transform="matrix(1, 0, 0, 1, 37, 136)"><g clip-path="url(#4b23c46062)"><g clip-path="url(#a8a1656f4b)"><g clip-path="url(#59fdab5449)"><path fill="#dad7cd" d="M 30.421875 223.214844 C 30.421875 223.214844 30.421875 223.214844 30.417969 223.214844 C 30.414062 223.214844 30.410156 223.222656 30.410156 223.230469 C 30.425781 223.300781 30.441406 223.375 30.464844 223.441406 C 30.519531 223.609375 30.539062 223.777344 30.523438 223.953125 C 30.523438 223.96875 30.511719 224.023438 30.496094 224.125 C 30.414062 224.632812 30.496094 225.148438 30.515625 225.660156 C 30.53125 226.257812 30.386719 226.84375 30.414062 227.445312 C 30.421875 227.679688 30.386719 227.898438 30.296875 228.101562 C 30.222656 228.28125 30.148438 228.457031 30.070312 228.636719 C 29.964844 228.878906 29.875 229.128906 29.792969 229.378906 C 29.792969 229.378906 29.769531 229.464844 29.71875 229.628906 C 29.671875 229.792969 29.613281 229.953125 29.550781 230.109375 C 29.523438 230.171875 29.496094 230.234375 29.472656 230.296875 C 29.445312 230.363281 29.417969 230.421875 29.382812 230.480469 C 29.339844 230.550781 29.296875 230.625 29.253906 230.695312 C 29.25 230.707031 29.242188 230.707031 29.238281 230.695312 C 29.21875 230.65625 29.207031 230.617188 29.207031 230.574219 C 29.1875 230.082031 29.40625 229.613281 29.492188 229.132812 C 29.59375 228.605469 29.644531 228.070312 29.671875 227.53125 C 29.691406 227.15625 29.546875 226.796875 29.421875 226.449219 C 29.292969 226.089844 29.253906 225.78125 29.21875 225.402344 C 29.214844 225.386719 29.210938 225.375 29.207031 225.363281 C 29.1875 225.335938 29.171875 225.335938 29.152344 225.359375 C 29.148438 225.371094 29.140625 225.382812 29.132812 225.402344 C 29.105469 225.507812 29.078125 225.613281 29.050781 225.71875 C 28.949219 226.136719 28.78125 226.53125 28.597656 226.917969 C 28.46875 227.199219 28.425781 227.351562 28.425781 227.664062 C 28.421875 228.019531 28.367188 228.375 28.367188 228.726562 C 28.359375 229.332031 28.695312 229.730469 28.917969 230.257812 C 28.980469 230.398438 29.027344 230.542969 29.066406 230.691406 C 29.078125 230.746094 29.085938 230.800781 29.089844 230.847656 C 29.09375 230.910156 29.09375 230.964844 29.085938 231.011719 C 29.027344 231.574219 28.972656 232.152344 28.988281 232.71875 C 28.988281 232.824219 28.992188 232.933594 28.992188 233.039062 C 28.992188 233.039062 28.992188 233.0625 28.996094 233.101562 C 28.996094 233.132812 28.996094 233.160156 28.988281 233.191406 C 28.957031 233.367188 28.914062 233.539062 28.855469 233.710938 C 28.847656 233.730469 28.839844 233.730469 28.835938 233.710938 C 28.820312 233.648438 28.804688 233.585938 28.789062 233.523438 C 28.78125 233.488281 28.773438 233.425781 28.757812 233.332031 C 28.667969 232.769531 28.355469 232.273438 28.214844 231.726562 C 28.074219 231.195312 27.988281 230.65625 27.910156 230.113281 C 27.867188 229.84375 27.824219 229.570312 27.785156 229.300781 C 27.753906 229.066406 27.816406 228.894531 27.867188 228.664062 C 27.875 228.625 27.871094 228.589844 27.855469 228.554688 C 27.855469 228.550781 27.855469 228.546875 27.851562 228.546875 C 27.84375 228.53125 27.820312 228.53125 27.808594 228.539062 C 27.773438 228.570312 27.738281 228.605469 27.710938 228.652344 C 27.421875 229.160156 27.371094 229.75 27.136719 230.273438 C 26.765625 231.105469 27.558594 231.746094 28.09375 232.261719 C 28.199219 232.363281 28.300781 232.46875 28.402344 232.574219 C 28.554688 232.730469 28.597656 233.175781 28.640625 233.378906 C 28.730469 233.804688 28.765625 234.230469 28.757812 234.664062 C 28.757812 234.691406 28.75 234.691406 28.738281 234.667969 C 28.710938 234.617188 28.679688 234.566406 28.640625 234.519531 C 28.621094 234.488281 28.582031 234.445312 28.523438 234.386719 C 28.410156 234.273438 28.304688 234.152344 28.210938 234.023438 C 28.0625 233.832031 28.054688 233.621094 28.007812 233.398438 C 27.894531 232.875 27.621094 232.292969 27.066406 232.140625 C 26.882812 232.09375 26.699219 232.070312 26.515625 232.023438 C 26.1875 231.9375 25.878906 231.765625 25.632812 231.53125 C 25.585938 231.484375 25.539062 231.4375 25.476562 231.421875 C 25.414062 231.410156 25.332031 231.453125 25.335938 231.515625 C 25.339844 231.613281 25.582031 231.667969 25.648438 231.730469 C 25.78125 231.855469 25.851562 232.054688 25.910156 232.21875 C 26.035156 232.566406 26.101562 233 26.449219 233.199219 C 26.734375 233.355469 27.011719 233.382812 27.269531 233.59375 C 27.542969 233.816406 27.886719 233.917969 28.152344 234.152344 C 28.566406 234.511719 28.816406 235.007812 28.847656 235.550781 C 28.851562 235.652344 28.871094 235.753906 28.898438 235.867188 C 28.929688 235.984375 28.945312 236.046875 28.945312 236.046875 C 29.070312 236.960938 29.234375 237.847656 29.09375 238.769531 C 29.078125 238.835938 29.074219 238.878906 29.074219 238.902344 C 29.078125 238.957031 29.109375 238.976562 29.164062 238.960938 C 29.210938 238.949219 29.246094 238.921875 29.269531 238.882812 C 29.292969 238.839844 29.3125 238.796875 29.324219 238.75 C 29.378906 238.542969 29.425781 238.335938 29.46875 238.128906 C 29.507812 238 29.535156 237.914062 29.546875 237.863281 C 29.589844 237.671875 29.65625 237.492188 29.742188 237.316406 C 30.027344 236.722656 30.46875 236.148438 30.957031 235.695312 C 31.210938 235.460938 31.488281 235.253906 31.785156 235.082031 C 32.113281 234.894531 32.441406 234.902344 32.785156 234.757812 C 32.820312 234.742188 32.820312 234.726562 32.78125 234.710938 C 32.671875 234.671875 32.558594 234.648438 32.445312 234.632812 C 32.050781 234.578125 31.65625 234.558594 31.261719 234.570312 C 30.835938 234.578125 30.34375 234.8125 30.003906 235.0625 C 29.617188 235.347656 29.425781 235.757812 29.488281 236.234375 C 29.496094 236.289062 29.515625 236.386719 29.550781 236.523438 C 29.605469 236.746094 29.617188 236.96875 29.589844 237.191406 C 29.578125 237.28125 29.546875 237.402344 29.5 237.558594 C 29.460938 237.679688 29.421875 237.804688 29.382812 237.929688 C 29.382812 237.933594 29.378906 237.9375 29.375 237.9375 C 29.371094 237.9375 29.371094 237.933594 29.371094 237.929688 C 29.371094 237.0625 29.015625 236.109375 29.238281 235.257812 C 29.410156 234.613281 30.046875 233.976562 30.71875 233.878906 C 31.089844 233.824219 31.382812 234.035156 31.75 234 C 32.328125 233.945312 32.898438 233.460938 33.386719 233.175781 C 33.679688 233.003906 33.980469 232.855469 34.292969 232.726562 C 34.375 232.691406 34.460938 232.675781 34.546875 232.679688 C 34.636719 232.699219 34.707031 232.707031 34.753906 232.707031 C 34.800781 232.703125 34.816406 232.683594 34.800781 232.644531 C 34.800781 232.636719 34.792969 232.628906 34.789062 232.625 C 34.730469 232.589844 34.664062 232.5625 34.59375 232.546875 C 34.292969 232.46875 33.988281 232.425781 33.675781 232.410156 C 33.121094 232.390625 32.550781 232.414062 32.019531 232.59375 C 31.429688 232.796875 31.089844 233.195312 30.652344 233.609375 C 30.453125 233.796875 30.199219 233.921875 29.972656 234.078125 C 29.742188 234.234375 29.546875 234.4375 29.375 234.664062 C 29.285156 234.78125 29.21875 234.902344 29.167969 235.023438 C 29.117188 235.160156 29.078125 235.300781 29.054688 235.445312 C 29.054688 235.449219 29.050781 235.453125 29.050781 235.453125 C 29.042969 235.460938 29.039062 235.453125 29.035156 235.441406 C 29.011719 235.316406 28.988281 235.1875 28.972656 235.058594 C 28.964844 235 28.957031 234.945312 28.945312 234.890625 C 28.925781 234.808594 28.914062 234.753906 28.910156 234.726562 C 28.894531 234.527344 28.890625 234.328125 28.894531 234.128906 C 28.898438 234.011719 28.914062 233.902344 28.9375 233.800781 C 28.972656 233.664062 29.015625 233.53125 29.066406 233.402344 C 29.078125 233.371094 29.09375 233.304688 29.117188 233.207031 C 29.1875 232.847656 29.367188 232.535156 29.703125 232.359375 C 30.03125 232.1875 30.359375 232.234375 30.703125 232.304688 C 31.097656 232.378906 31.496094 232.410156 31.890625 232.328125 C 32.371094 232.226562 32.804688 232.046875 33.25 231.847656 C 33.65625 231.660156 34.101562 231.539062 34.523438 231.386719 C 34.777344 231.292969 35.023438 231.183594 35.265625 231.058594 C 35.480469 230.945312 35.59375 230.886719 35.597656 230.882812 C 35.816406 230.769531 36.035156 230.648438 36.246094 230.519531 C 36.269531 230.507812 36.269531 230.496094 36.246094 230.484375 C 36.226562 230.476562 36.207031 230.472656 36.183594 230.472656 C 35.902344 230.5 35.621094 230.535156 35.34375 230.578125 C 34.71875 230.671875 34.09375 230.753906 33.480469 230.910156 C 32.976562 231.042969 32.507812 231.269531 32.019531 231.457031 C 31.398438 231.691406 30.726562 231.757812 30.109375 231.980469 C 29.992188 232.023438 29.890625 232.078125 29.800781 232.148438 C 29.734375 232.195312 29.683594 232.230469 29.652344 232.242188 L 29.554688 232.273438 C 29.53125 232.28125 29.527344 232.273438 29.542969 232.253906 C 29.601562 232.171875 29.660156 232.089844 29.714844 232.007812 C 29.769531 231.925781 29.824219 231.859375 29.882812 231.808594 C 30.203125 231.523438 30.558594 231.257812 30.976562 231.132812 C 31.433594 231 31.921875 231.011719 32.378906 230.859375 C 32.871094 230.699219 33.164062 230.320312 33.605469 230.089844 C 33.867188 229.953125 34.160156 229.882812 34.488281 229.882812 C 34.492188 229.882812 34.511719 229.882812 34.550781 229.886719 C 34.582031 229.886719 34.613281 229.882812 34.644531 229.871094 C 34.6875 229.824219 34.699219 229.777344 34.671875 229.722656 C 34.667969 229.714844 34.664062 229.710938 34.65625 229.707031 C 34.480469 229.628906 34.296875 229.585938 34.105469 229.574219 C 33.625 229.554688 32.964844 229.429688 32.515625 229.628906 C 32.195312 229.769531 31.996094 230.066406 31.734375 230.289062 C 31.433594 230.542969 31.109375 230.78125 30.789062 231.003906 C 30.625 231.085938 30.476562 231.183594 30.339844 231.300781 C 30.339844 231.300781 30.316406 231.324219 30.269531 231.367188 C 30.214844 231.417969 30.152344 231.460938 30.085938 231.492188 C 30.019531 231.523438 30 231.507812 30.023438 231.449219 C 30.050781 231.378906 30.085938 231.308594 30.125 231.242188 C 30.152344 231.199219 30.195312 231.136719 30.257812 231.058594 C 30.964844 230.164062 31.492188 229.128906 32.59375 228.636719 L 32.929688 228.484375 L 33.519531 228.210938 C 33.542969 228.199219 33.558594 228.179688 33.558594 228.15625 C 33.5625 228.132812 33.554688 228.121094 33.53125 228.113281 C 33.519531 228.113281 33.503906 228.113281 33.484375 228.117188 C 33.140625 228.195312 32.839844 228.324219 32.480469 228.289062 C 32.117188 228.253906 31.785156 228.242188 31.429688 228.34375 C 30.398438 228.640625 30.140625 229.621094 30.007812 230.566406 C 29.988281 230.710938 29.976562 230.929688 29.96875 231.21875 C 29.953125 231.71875 29.453125 232.140625 29.234375 232.566406 C 29.203125 232.625 29.167969 232.683594 29.128906 232.738281 C 29.121094 232.75 29.113281 232.75 29.109375 232.738281 C 29.089844 232.691406 29.078125 232.648438 29.082031 232.605469 C 29.085938 232.519531 29.09375 232.429688 29.109375 232.34375 C 29.128906 232.21875 29.140625 232.132812 29.144531 232.078125 C 29.160156 231.867188 29.167969 231.652344 29.171875 231.441406 C 29.175781 231.238281 29.230469 231.035156 29.335938 230.824219 C 29.542969 230.402344 29.710938 229.964844 29.863281 229.523438 C 30 229.117188 30.082031 228.644531 30.363281 228.308594 C 30.398438 228.265625 30.429688 228.238281 30.460938 228.21875 C 30.539062 228.179688 30.613281 228.140625 30.691406 228.097656 C 30.769531 228.058594 30.839844 228.007812 30.90625 227.949219 C 31.753906 227.183594 31.640625 225.449219 31.101562 224.535156 C 31.027344 224.40625 30.976562 224.261719 30.941406 224.101562 C 30.898438 223.875 30.796875 223.671875 30.636719 223.492188 C 30.582031 223.429688 30.535156 223.359375 30.503906 223.28125 C 30.488281 223.242188 30.460938 223.21875 30.421875 223.214844 Z M 25.933594 231.929688 C 25.933594 231.929688 25.933594 231.925781 25.933594 231.925781 C 25.933594 231.925781 25.933594 231.929688 25.933594 231.929688 Z M 29.390625 238.09375 C 29.390625 238.09375 29.390625 238.09375 29.394531 238.09375 C 29.394531 238.09375 29.390625 238.09375 29.390625 238.09375 Z M 32.6875 232.855469 C 32.6875 232.855469 32.6875 232.859375 32.6875 232.859375 C 32.6875 232.859375 32.6875 232.855469 32.6875 232.855469 Z M 34.058594 229.773438 Z M 34.058594 229.773438 " fill-opacity="1" fill-rule="nonzero"/></g></g><g fill="#1d1d1d" fill-opacity="1"><g transform="translate(103.473907, 107.471695)"><g><path d="M -1.515625 0 L -1.515625 -1.15625 C -0.265625 -1.570312 0.945312 -2.382812 2.125 -3.59375 C 3.3125 -4.8125 4.585938 -7.109375 5.953125 -10.484375 L 23.4375 -53.8125 C 23.96875 -55.226562 23.910156 -56.617188 23.265625 -57.984375 L 22.46875 -59.84375 L 29.125 -62.875 L 50.96875 -10.390625 C 52.332031 -7.078125 53.5625 -4.8125 54.65625 -3.59375 C 55.75 -2.382812 56.769531 -1.570312 57.71875 -1.15625 L 57.71875 0 L 43.953125 0 L 43.953125 -1.15625 C 45.316406 -1.570312 45.878906 -2.382812 45.640625 -3.59375 C 45.398438 -4.8125 44.570312 -7.078125 43.15625 -10.390625 L 37.734375 -23.4375 L 12.703125 -23.4375 L 7.453125 -10.484375 C 5.203125 -4.859375 5.5625 -1.75 8.53125 -1.15625 L 8.53125 0 Z M 13.234375 -24.78125 L 37.203125 -24.78125 L 25.046875 -53.984375 Z M 13.234375 -24.78125 "/></g></g></g><g fill="#1d1d1d" fill-opacity="1"><g transform="translate(158.604036, 107.471695)"><g><path d="M 6.296875 -51.6875 C 4.992188 -55.050781 3.796875 -57.335938 2.703125 -58.546875 C 1.609375 -59.765625 0.585938 -60.582031 -0.359375 -61 L -0.359375 -62.15625 L 13.5 -62.15625 L 13.5 -61 C 12.195312 -60.582031 11.648438 -59.765625 11.859375 -58.546875 C 12.066406 -57.335938 12.820312 -55.050781 14.125 -51.6875 L 31.25 -7.71875 L 48.125 -51.59375 C 49.25 -54.550781 49.722656 -56.785156 49.546875 -58.296875 C 49.367188 -59.804688 48.507812 -60.707031 46.96875 -61 L 46.96875 -62.15625 L 56.921875 -62.15625 L 56.921875 -61 C 55.734375 -60.582031 54.5625 -59.765625 53.40625 -58.546875 C 52.257812 -57.335938 51.03125 -55.050781 49.71875 -51.6875 L 29.5625 0.4375 L 27.078125 0.4375 Z M 6.296875 -51.6875 "/></g></g></g><g fill="#1d1d1d" fill-opacity="1"><g transform="translate(213.290281, 107.471695)"><g><path d="M 4.53125 0 L 4.53125 -1.15625 C 5.894531 -1.570312 6.828125 -2.457031 7.328125 -3.8125 C 7.828125 -5.175781 8.078125 -7.664062 8.078125 -11.28125 L 8.078125 -50.875 C 8.078125 -54.550781 7.828125 -57.050781 7.328125 -58.375 C 6.828125 -59.707031 5.894531 -60.582031 4.53125 -61 L 4.53125 -62.15625 L 45.8125 -62.15625 L 46.796875 -50.609375 L 45.8125 -50.34375 C 44.28125 -54.25 42.132812 -56.972656 39.375 -58.515625 C 36.625 -60.054688 32.972656 -60.828125 28.421875 -60.828125 L 15.359375 -60.828125 L 15.359375 -33.921875 L 26.734375 -33.921875 C 30.109375 -33.921875 32.726562 -34.140625 34.59375 -34.578125 C 36.457031 -35.023438 37.816406 -35.707031 38.671875 -36.625 C 39.523438 -37.539062 40.128906 -38.648438 40.484375 -39.953125 L 41.5625 -39.953125 L 41.5625 -26.546875 L 40.484375 -26.546875 C 40.128906 -27.910156 39.523438 -29.035156 38.671875 -29.921875 C 37.816406 -30.804688 36.457031 -31.472656 34.59375 -31.921875 C 32.726562 -32.367188 30.109375 -32.59375 26.734375 -32.59375 L 15.359375 -32.59375 L 15.359375 -5.328125 C 15.359375 -2.660156 16.691406 -1.328125 19.359375 -1.328125 L 30.90625 -1.328125 C 35.164062 -1.328125 38.6875 -2.066406 41.46875 -3.546875 C 44.25 -5.023438 46.441406 -7.835938 48.046875 -11.984375 L 49.015625 -11.8125 L 48.3125 0 Z M 4.53125 0 "/></g></g></g><g fill="#1d1d1d" fill-opacity="1"><g transform="translate(263.803993, 107.471695)"><g><path d="M 2.65625 -44.21875 C 4.96875 -45.40625 6.671875 -47.003906 7.765625 -49.015625 C 8.859375 -51.023438 9.46875 -53.15625 9.59375 -55.40625 C 9.238281 -55.289062 8.894531 -55.1875 8.5625 -55.09375 C 8.238281 -55.007812 7.867188 -54.96875 7.453125 -54.96875 C 6.273438 -54.96875 5.253906 -55.394531 4.390625 -56.25 C 3.535156 -57.113281 3.109375 -58.132812 3.109375 -59.3125 C 3.109375 -60.789062 3.550781 -62.003906 4.4375 -62.953125 C 5.320312 -63.898438 6.476562 -64.375 7.90625 -64.375 C 9.625 -64.375 11 -63.78125 12.03125 -62.59375 C 13.0625 -61.414062 13.550781 -59.734375 13.5 -57.546875 C 13.5 -55.410156 12.992188 -53.378906 11.984375 -51.453125 C 10.984375 -49.535156 9.679688 -47.878906 8.078125 -46.484375 C 6.484375 -45.085938 4.796875 -44.066406 3.015625 -43.421875 Z M 2.65625 -44.21875 "/></g></g></g><g fill="#1d1d1d" fill-opacity="1"><g transform="translate(19.108657, 121.733832)"><g><path d="M -2.09375 26.609375 C -6.082031 26.609375 -9.671875 25.257812 -12.859375 22.5625 C -16.046875 19.875 -17.640625 15.191406 -17.640625 8.515625 C -17.640625 3.929688 -16.566406 -1 -14.421875 -6.28125 C -12.285156 -11.5625 -9.144531 -16.789062 -5 -21.96875 C -0.863281 -27.15625 4.113281 -32.039062 9.9375 -36.625 C 15.769531 -41.207031 22.375 -45.046875 29.75 -48.140625 L 30.640625 -46.5 C 24.367188 -43.800781 18.835938 -40.304688 14.046875 -36.015625 C 9.265625 -31.734375 5.226562 -27.148438 1.9375 -22.265625 C -1.34375 -17.390625 -3.804688 -12.609375 -5.453125 -7.921875 C -7.097656 -3.234375 -7.921875 0.898438 -7.921875 4.484375 C -7.921875 16.546875 -3.632812 22.578125 4.9375 22.578125 C 8.914062 22.578125 12.800781 21.40625 16.59375 19.0625 C 20.382812 16.71875 24 13.578125 27.4375 9.640625 C 30.875 5.703125 34.160156 1.296875 37.296875 -3.578125 C 40.441406 -8.460938 43.410156 -13.445312 46.203125 -18.53125 C 50.785156 -26.507812 55.242188 -34.984375 59.578125 -43.953125 C 63.910156 -52.921875 68.242188 -61.863281 72.578125 -70.78125 C 76.910156 -79.707031 81.269531 -88.007812 85.65625 -95.6875 C 87.65625 -99.164062 89.828125 -102.023438 92.171875 -104.265625 C 94.515625 -106.515625 97.28125 -108.6875 100.46875 -110.78125 L 103.453125 -112.71875 L 54.71875 -112.28125 C 51.125 -112.28125 48.179688 -111.851562 45.890625 -111 C 43.597656 -110.15625 41.578125 -109.007812 39.828125 -107.5625 C 38.085938 -106.113281 36.175781 -104.394531 34.09375 -102.40625 L 32.890625 -103.453125 C 34.984375 -105.742188 37.148438 -108.109375 39.390625 -110.546875 C 41.628906 -112.992188 44 -115.210938 46.5 -117.203125 C 48.488281 -118.796875 51.273438 -119.59375 54.859375 -119.59375 L 110.1875 -119.453125 C 110.976562 -119.453125 111.472656 -119.351562 111.671875 -119.15625 C 111.867188 -118.957031 111.96875 -118.707031 111.96875 -118.40625 C 111.96875 -118.007812 111.367188 -117.210938 110.171875 -116.015625 C 108.984375 -114.816406 107.941406 -113.921875 107.046875 -113.328125 C 104.648438 -111.722656 102.753906 -109.847656 101.359375 -107.703125 C 99.960938 -105.566406 98.414062 -103.054688 96.71875 -100.171875 C 92.332031 -92.691406 87.972656 -84.488281 83.640625 -75.5625 C 79.304688 -66.644531 74.972656 -57.703125 70.640625 -48.734375 C 66.304688 -39.765625 61.945312 -31.441406 57.5625 -23.765625 C 53.769531 -17.390625 49.628906 -11.210938 45.140625 -5.234375 C 40.660156 0.742188 35.90625 6.125 30.875 10.90625 C 25.84375 15.695312 20.5625 19.507812 15.03125 22.34375 C 9.5 25.1875 3.789062 26.609375 -2.09375 26.609375 Z M -2.09375 26.609375 "/></g></g></g><g fill="#000000" fill-opacity="1"><g transform="translate(23.085886, 165.031655)"><g><path d="M 12.671875 -12.390625 L 12.671875 0 L 10.375 0 L 10.375 -5.3125 L 3.96875 -5.3125 L 3.96875 0 L 1.671875 0 L 1.671875 -12.390625 L 3.96875 -12.390625 L 3.96875 -7.28125 L 10.375 -7.28125 L 10.375 -12.390625 Z M 12.671875 -12.390625 "/></g></g></g><g fill="#000000" fill-opacity="1"><g transform="translate(40.224155, 165.031655)"><g><path d="M 9.703125 -2.875 L 3.5 -2.875 L 2.28125 0 L -0.09375 0 L 5.484375 -12.390625 L 7.75 -12.390625 L 13.34375 0 L 10.9375 0 Z M 8.9375 -4.671875 L 6.609375 -10.09375 L 4.28125 -4.671875 Z M 8.9375 -4.671875 "/></g></g></g><g fill="#000000" fill-opacity="1"><g transform="translate(56.282443, 165.031655)"><g><path d="M 12.671875 -12.390625 L 12.671875 0 L 10.78125 0 L 3.953125 -8.390625 L 3.953125 0 L 1.671875 0 L 1.671875 -12.390625 L 3.5625 -12.390625 L 10.390625 -4 L 10.390625 -12.390625 Z M 12.671875 -12.390625 "/></g></g></g><g fill="#000000" fill-opacity="1"><g transform="translate(73.420712, 165.031655)"><g><path d="M 1.671875 -12.390625 L 7.078125 -12.390625 C 8.398438 -12.390625 9.570312 -12.132812 10.59375 -11.625 C 11.625 -11.113281 12.421875 -10.382812 12.984375 -9.4375 C 13.554688 -8.5 13.84375 -7.421875 13.84375 -6.203125 C 13.84375 -4.972656 13.554688 -3.890625 12.984375 -2.953125 C 12.421875 -2.015625 11.625 -1.285156 10.59375 -0.765625 C 9.570312 -0.253906 8.398438 0 7.078125 0 L 1.671875 0 Z M 6.96875 -1.953125 C 7.882812 -1.953125 8.6875 -2.125 9.375 -2.46875 C 10.0625 -2.8125 10.59375 -3.304688 10.96875 -3.953125 C 11.34375 -4.597656 11.53125 -5.347656 11.53125 -6.203125 C 11.53125 -7.046875 11.34375 -7.789062 10.96875 -8.4375 C 10.59375 -9.082031 10.0625 -9.578125 9.375 -9.921875 C 8.6875 -10.265625 7.882812 -10.4375 6.96875 -10.4375 L 3.96875 -10.4375 L 3.96875 -1.953125 Z M 6.96875 -1.953125 "/></g></g></g><g fill="#000000" fill-opacity="1"><g transform="translate(90.842258, 165.031655)"><g/></g></g><g fill="#000000" fill-opacity="1"><g transform="translate(98.526147, 165.031655)"><g><path d="M 13.046875 0 L 13.03125 -8.21875 L 8.953125 -1.421875 L 7.9375 -1.421875 L 3.859375 -8.109375 L 3.859375 0 L 1.671875 0 L 1.671875 -12.390625 L 3.5625 -12.390625 L 8.484375 -4.171875 L 13.3125 -12.390625 L 15.203125 -12.390625 L 15.21875 0 Z M 13.046875 0 "/></g></g></g><g fill="#000000" fill-opacity="1"><g transform="translate(118.231633, 165.031655)"><g><path d="M 9.703125 -2.875 L 3.5 -2.875 L 2.28125 0 L -0.09375 0 L 5.484375 -12.390625 L 7.75 -12.390625 L 13.34375 0 L 10.9375 0 Z M 8.9375 -4.671875 L 6.609375 -10.09375 L 4.28125 -4.671875 Z M 8.9375 -4.671875 "/></g></g></g><g fill="#000000" fill-opacity="1"><g transform="translate(134.289921, 165.031655)"><g><path d="M 1.671875 -12.390625 L 7.078125 -12.390625 C 8.398438 -12.390625 9.570312 -12.132812 10.59375 -11.625 C 11.625 -11.113281 12.421875 -10.382812 12.984375 -9.4375 C 13.554688 -8.5 13.84375 -7.421875 13.84375 -6.203125 C 13.84375 -4.972656 13.554688 -3.890625 12.984375 -2.953125 C 12.421875 -2.015625 11.625 -1.285156 10.59375 -0.765625 C 9.570312 -0.253906 8.398438 0 7.078125 0 L 1.671875 0 Z M 6.96875 -1.953125 C 7.882812 -1.953125 8.6875 -2.125 9.375 -2.46875 C 10.0625 -2.8125 10.59375 -3.304688 10.96875 -3.953125 C 11.34375 -4.597656 11.53125 -5.347656 11.53125 -6.203125 C 11.53125 -7.046875 11.34375 -7.789062 10.96875 -8.4375 C 10.59375 -9.082031 10.0625 -9.578125 9.375 -9.921875 C 8.6875 -10.265625 7.882812 -10.4375 6.96875 -10.4375 L 3.96875 -10.4375 L 3.96875 -1.953125 Z M 6.96875 -1.953125 "/></g></g></g><g fill="#000000" fill-opacity="1"><g transform="translate(151.711468, 165.031655)"><g><path d="M 10.953125 -1.921875 L 10.953125 0 L 1.671875 0 L 1.671875 -12.390625 L 10.703125 -12.390625 L 10.703125 -10.46875 L 3.96875 -10.46875 L 3.96875 -7.234375 L 9.953125 -7.234375 L 9.953125 -5.34375 L 3.96875 -5.34375 L 3.96875 -1.921875 Z M 10.953125 -1.921875 "/></g></g></g><g fill="#000000" fill-opacity="1"><g transform="translate(166.371062, 165.031655)"><g/></g></g><g fill="#000000" fill-opacity="1"><g transform="translate(174.054951, 165.031655)"><g><path d="M 3.59375 0.171875 C 2.800781 0.171875 2.070312 0.015625 1.40625 -0.296875 C 0.738281 -0.609375 0.191406 -1.046875 -0.234375 -1.609375 L 1.078125 -3.1875 C 1.765625 -2.238281 2.585938 -1.765625 3.546875 -1.765625 C 4.828125 -1.765625 5.46875 -2.523438 5.46875 -4.046875 L 5.46875 -10.46875 L 1.0625 -10.46875 L 1.0625 -12.390625 L 7.765625 -12.390625 L 7.765625 -4.171875 C 7.765625 -2.722656 7.410156 -1.632812 6.703125 -0.90625 C 5.992188 -0.1875 4.957031 0.171875 3.59375 0.171875 Z M 3.59375 0.171875 "/></g></g></g><g fill="#000000" fill-opacity="1"><g transform="translate(186.182763, 165.031655)"><g><path d="M 10.953125 -1.921875 L 10.953125 0 L 1.671875 0 L 1.671875 -12.390625 L 10.703125 -12.390625 L 10.703125 -10.46875 L 3.96875 -10.46875 L 3.96875 -7.234375 L 9.953125 -7.234375 L 9.953125 -5.34375 L 3.96875 -5.34375 L 3.96875 -1.921875 Z M 10.953125 -1.921875 "/></g></g></g><g fill="#000000" fill-opacity="1"><g transform="translate(200.842358, 165.031655)"><g><path d="M 19.78125 -12.390625 L 15.671875 0 L 13.21875 0 L 10.15625 -9.171875 L 7.046875 0 L 4.578125 0 L 0.484375 -12.390625 L 2.875 -12.390625 L 5.953125 -2.96875 L 9.15625 -12.390625 L 11.28125 -12.390625 L 14.40625 -2.921875 L 17.578125 -12.390625 Z M 19.78125 -12.390625 "/></g></g></g><g fill="#000000" fill-opacity="1"><g transform="translate(223.894069, 165.031655)"><g><path d="M 10.953125 -1.921875 L 10.953125 0 L 1.671875 0 L 1.671875 -12.390625 L 10.703125 -12.390625 L 10.703125 -10.46875 L 3.96875 -10.46875 L 3.96875 -7.234375 L 9.953125 -7.234375 L 9.953125 -5.34375 L 3.96875 -5.34375 L 3.96875 -1.921875 Z M 10.953125 -1.921875 "/></g></g></g><g fill="#000000" fill-opacity="1"><g transform="translate(238.553663, 165.031655)"><g><path d="M 1.671875 -12.390625 L 3.96875 -12.390625 L 3.96875 -1.953125 L 10.4375 -1.953125 L 10.4375 0 L 1.671875 0 Z M 1.671875 -12.390625 "/></g></g></g><g fill="#000000" fill-opacity="1"><g transform="translate(251.956214, 165.031655)"><g><path d="M 9.765625 0 L 7.234375 -3.625 C 7.128906 -3.613281 6.972656 -3.609375 6.765625 -3.609375 L 3.96875 -3.609375 L 3.96875 0 L 1.671875 0 L 1.671875 -12.390625 L 6.765625 -12.390625 C 7.835938 -12.390625 8.769531 -12.210938 9.5625 -11.859375 C 10.363281 -11.503906 10.972656 -10.992188 11.390625 -10.328125 C 11.816406 -9.671875 12.03125 -8.890625 12.03125 -7.984375 C 12.03125 -7.046875 11.800781 -6.238281 11.34375 -5.5625 C 10.894531 -4.894531 10.25 -4.398438 9.40625 -4.078125 L 12.25 0 Z M 9.71875 -7.984375 C 9.71875 -8.773438 9.457031 -9.378906 8.9375 -9.796875 C 8.414062 -10.222656 7.65625 -10.4375 6.65625 -10.4375 L 3.96875 -10.4375 L 3.96875 -5.5 L 6.65625 -5.5 C 7.65625 -5.5 8.414062 -5.710938 8.9375 -6.140625 C 9.457031 -6.578125 9.71875 -7.191406 9.71875 -7.984375 Z M 9.71875 -7.984375 "/></g></g></g><g fill="#000000" fill-opacity="1"><g transform="translate(267.695812, 165.031655)"><g><path d="M 7.015625 -4.375 L 7.015625 0 L 4.703125 0 L 4.703125 -4.34375 L -0.15625 -12.390625 L 2.296875 -12.390625 L 5.9375 -6.359375 L 9.59375 -12.390625 L 11.859375 -12.390625 Z M 7.015625 -4.375 "/></g></g></g></g></g></svg>